G04*
G04 #@! TF.GenerationSoftware,Altium Limited,Altium Designer,23.7.1 (13)*
G04*
G04 Layer_Color=16711935*
%FSLAX25Y25*%
%MOIN*%
G70*
G04*
G04 #@! TF.SameCoordinates,6C6A2D0A-CA3E-4422-8065-352EB939247C*
G04*
G04*
G04 #@! TF.FilePolarity,Negative*
G04*
G01*
G75*
%ADD44C,0.07001*%
%ADD45C,0.11725*%
%ADD46C,0.08450*%
%ADD47C,0.14087*%
%ADD48C,0.10052*%
%ADD49C,0.13005*%
%ADD50C,0.08674*%
%ADD51C,0.07296*%
%ADD52C,0.10367*%
%ADD53C,0.06556*%
%ADD54R,0.06556X0.06556*%
%ADD55C,0.05800*%
D44*
X1338213Y187461D02*
D03*
X1339232Y250335D02*
D03*
D45*
X1324709Y200965D02*
D03*
X1351717D02*
D03*
Y173957D02*
D03*
X1352736Y236831D02*
D03*
X1325728D02*
D03*
Y263839D02*
D03*
D46*
X1020315Y187008D02*
D03*
Y227008D02*
D03*
X980315D02*
D03*
Y187008D02*
D03*
X1094803Y187559D02*
D03*
Y227559D02*
D03*
X1054803D02*
D03*
Y187559D02*
D03*
D47*
X1000315Y212047D02*
D03*
X1074803Y212598D02*
D03*
D48*
X309370Y713071D02*
D03*
X299370D02*
D03*
X289370D02*
D03*
X279370D02*
D03*
X269370D02*
D03*
Y703071D02*
D03*
X279370D02*
D03*
X289370D02*
D03*
X299370D02*
D03*
X309370D02*
D03*
Y693071D02*
D03*
X299370D02*
D03*
X289370D02*
D03*
X279370D02*
D03*
X269370D02*
D03*
Y683071D02*
D03*
X279370D02*
D03*
X289370D02*
D03*
X299370D02*
D03*
X309370D02*
D03*
Y673071D02*
D03*
X299370D02*
D03*
X289370D02*
D03*
X279370D02*
D03*
X269370D02*
D03*
X2080394Y672913D02*
D03*
X2090394D02*
D03*
X2100394D02*
D03*
X2110394D02*
D03*
X2120394D02*
D03*
Y682913D02*
D03*
X2110394D02*
D03*
X2100394D02*
D03*
X2090394D02*
D03*
X2080394D02*
D03*
Y692913D02*
D03*
X2090394D02*
D03*
X2100394D02*
D03*
X2110394D02*
D03*
X2120394D02*
D03*
Y702913D02*
D03*
X2110394D02*
D03*
X2100394D02*
D03*
X2090394D02*
D03*
X2080394D02*
D03*
Y712913D02*
D03*
X2090394D02*
D03*
X2100394D02*
D03*
X2110394D02*
D03*
X2120394D02*
D03*
D49*
X954724Y124016D02*
D03*
X1193898Y600394D02*
D03*
X2092520Y431102D02*
D03*
X1604331D02*
D03*
X352362Y732283D02*
D03*
X232283D02*
D03*
X1311024Y398622D02*
D03*
X1089567D02*
D03*
X2157480Y732283D02*
D03*
X2037402D02*
D03*
X1403543Y285433D02*
D03*
X954724D02*
D03*
X1671260Y600394D02*
D03*
X718504D02*
D03*
X1403543Y124016D02*
D03*
X781496Y431102D02*
D03*
X301181Y431102D02*
D03*
D50*
X1186220Y175197D02*
D03*
X1176378D02*
D03*
X1166535D02*
D03*
X1116142D02*
D03*
X1125984D02*
D03*
X1135827D02*
D03*
X1186220Y224410D02*
D03*
X1176378D02*
D03*
X1166535D02*
D03*
X1116142D02*
D03*
X1125984D02*
D03*
X1135827D02*
D03*
D51*
X1253150Y125984D02*
D03*
X1303150D02*
D03*
D52*
X1246138Y139488D02*
D03*
X1310157D02*
D03*
D53*
X1251138Y161969D02*
D03*
X1260153D02*
D03*
X1296138D02*
D03*
X1305157D02*
D03*
X1264161Y142992D02*
D03*
X1268157Y135984D02*
D03*
X1272153Y142992D02*
D03*
X1276150Y135984D02*
D03*
X1280146Y142992D02*
D03*
X1284142Y135984D02*
D03*
X1288138Y142992D02*
D03*
D54*
X1292134Y135984D02*
D03*
D55*
X1270185Y195382D02*
D03*
X1262189Y195382D02*
D03*
X1269458Y244961D02*
D03*
X1262795Y245079D02*
D03*
X1179134Y318898D02*
D03*
X1162402Y138779D02*
D03*
X1196850Y137795D02*
D03*
X1182534Y257390D02*
D03*
X1169291Y257874D02*
D03*
X1243110Y283465D02*
D03*
Y266732D02*
D03*
X1288583Y267717D02*
D03*
X1288386Y283465D02*
D03*
X1239764Y221378D02*
D03*
X1177165Y397638D02*
D03*
X1210630D02*
D03*
X1214567Y366142D02*
D03*
X1228347Y190945D02*
D03*
X1210630Y312992D02*
D03*
Y383858D02*
D03*
X1171260Y366142D02*
D03*
X1192413Y430655D02*
D03*
X1204724Y450787D02*
D03*
X1198819Y248031D02*
D03*
X1181102Y450787D02*
D03*
X1198819Y147638D02*
D03*
M02*
