M48
;Layer_Color=9474304
;FILE_FORMAT=2:4
INCH,TZ
;TYPE=PLATED
T01F00S00C0.0280
T02F00S00C0.0370
T03F00S00C0.0394
T04F00S00C0.0413
T05F00S00C0.0531
T06F00S00C0.0571
T07F00S00C0.0630
T08F00S00C0.0638
T09F00S00C0.0728
T10F00S00C0.0886
;TYPE=NON_PLATED
T11F00S00C0.1299
T12F00S00C0.1339
%
T01
X116240Y13878
X119685Y13780
X119882Y14764
X126219Y19538
X127018Y19538
X126946Y24496
X126280Y24508
X128858Y26772
X128839Y28346
X124311
Y26673
X123976Y22138
X122835Y19094
X119882Y24803
X118253Y25739
X116929Y25787
X117913Y31890
X121063Y31299
X121457Y36614
X121063Y38386
Y39764
X117717
X117126Y36614
X119241Y43065
X118110Y45079
X120472
T02
X126816Y13598
X127615
X128414
X129213
X128814Y14299
X128015
X127215
X126416
X126015Y16197
X125114
X129614
X130516
T03
X111614Y17520
X112598
X113583
X116654
X117638
X118622
Y22441
X117638
X116654
X113583
X112598
X111614
T04
X133821Y18746
X133923Y25033
T05
X109480Y18756
Y22756
X105480
X102031Y22701
Y18701
X105480Y18756
X98032Y18701
Y22701
T06
X26937Y67307
Y68307
Y69307
Y70307
Y71307
X27937
X28937
X29937
X30937
Y70307
X29937
X28937
X27937
Y69307
X28937
X29937
X30937
Y68307
X29937
Y67307
X30937
X28937
X27937
Y68307
T07
X28937Y68307
X208039Y68291
Y67291
X209039
X210039
X211039
X212039
Y68291
X211039
X210039
X209039
Y69291
X208039
Y70291
X209039
X210039
Y69291
X211039
X212039
Y70291
X211039
Y71291
X210039
X209039
X208039
X212039
T08
X124614Y13949
X131016
T09
X132471Y20096
X135172
Y17396
X135274Y23683
X132573
Y26384
T10
X100031Y21205
X107480Y21260
T11
X125315Y12598
X130315
T12
X95472Y12402
X140354
Y28543
X95472
X30118Y43110
X78150Y43110
X108957Y39862
X131102
X160433Y43110
X209252
X167126Y60039
X119390
X71850
X23228Y73228
X35236
X203740Y73228
X215748
M30
